<?xml version="1.0" encoding="UTF-8" standalone="no"?>
<!DOCTYPE svg PUBLIC "-//W3C//DTD SVG 1.1//EN" "http://www.w3.org/Graphics/SVG/1.1/DTD/svg11.dtd">

<svg xmlns="http://www.w3.org/2000/svg" x="0px" xmlns:xlink="http://www.w3.org/1999/xlink" y="0px" viewBox="0 0 1685.199463 1191.970337" width="1685.199463px" version="1.1" height="1191.970337px">
    <defs>
        <linearGradient x2="220.479553" id="0C1B7B1F-A852-4E65-9EBB-E52EB1101B27" x1="220.479553" y2="426.838104" gradientUnits="userSpaceOnUse" y1="295.565735">
            <stop stop-opacity="1.000000" offset="0.00%" stop-color="#F4F4F6"></stop>
            <stop stop-opacity="1.000000" offset="20.39%" stop-color="#585759"></stop>
            <stop stop-opacity="1.000000" offset="100.00%" stop-color="#585759"></stop>
        </linearGradient>
        <linearGradient x2="98.820312" id="B44C3523-A6FB-46B4-A46F-806CED95AB57" x1="98.820312" y2="436.330933" gradientUnits="userSpaceOnUse" y1="299.953400">
            <stop stop-opacity="1.000000" offset="0.00%" stop-color="#F4F4F6"></stop>
            <stop stop-opacity="1.000000" offset="20.39%" stop-color="#585759"></stop>
            <stop stop-opacity="1.000000" offset="86.27%" stop-color="#555458"></stop>
            <stop stop-opacity="1.000000" offset="100.00%" stop-color="#FFFFFF"></stop>
        </linearGradient>
        <linearGradient x2="192.940216" id="65033554-B1DC-4B77-8C05-595CFF736389" x1="108.724640" y2="363.825378" gradientUnits="userSpaceOnUse" y1="363.825378">
            <stop stop-opacity="1.000000" offset="0.00%" stop-color="#E7E8F2"></stop>
            <stop stop-opacity="1.000000" offset="100.00%" stop-color="#D3D5E9"></stop>
        </linearGradient>
        <linearGradient x2="483.671509" id="DD785C8C-0C5C-4CBF-B7B7-BC09792B6E99" x1="149.280334" y2="293.558777" gradientUnits="userSpaceOnUse" y1="293.558777">
            <stop stop-opacity="1.000000" offset="0.00%" stop-color="#F4F4F6"></stop>
            <stop stop-opacity="1.000000" offset="20.39%" stop-color="#585759"></stop>
            <stop stop-opacity="1.000000" offset="100.00%" stop-color="#585759"></stop>
        </linearGradient>
        <linearGradient x2="212.462921" id="E6C9CDD3-0C26-4199-9A74-8A1A8F0D517B" x1="147.565521" y2="384.761902" gradientUnits="userSpaceOnUse" y1="384.761902">
            <stop stop-opacity="0.000000" offset="0.00%" stop-color="#FFFFFF"></stop>
            <stop stop-opacity="1.000000" offset="100.00%" stop-color="#000000"></stop>
        </linearGradient>
        <linearGradient x2="205.518921" id="A6A3E8D5-5E36-4220-97F8-F0C7045E47F4" x1="166.405334" y2="385.365479" gradientUnits="userSpaceOnUse" y1="385.365479">
            <stop stop-opacity="1.000000" offset="0.00%" stop-color="#E0DFED"></stop>
            <stop stop-opacity="1.000000" offset="100.00%" stop-color="#BFBFDC"></stop>
        </linearGradient>
        <linearGradient x2="205.518921" id="C3ED7D1C-BB21-4B7A-A5E1-C7F6EFCF0BC3" x1="166.405334" y2="431.828796" gradientUnits="userSpaceOnUse" y1="431.828796">
            <stop stop-opacity="1.000000" offset="0.00%" stop-color="#E0DFED"></stop>
            <stop stop-opacity="1.000000" offset="100.00%" stop-color="#BFBFDC"></stop>
        </linearGradient>
        <linearGradient x2="212.461945" id="DA3392E4-7ABA-4C93-9697-B32B7FD3B0F0" x1="147.564545" y2="391.660400" gradientUnits="userSpaceOnUse" y1="391.660400">
            <stop stop-opacity="0.000000" offset="0.00%" stop-color="#FFFFFF"></stop>
            <stop stop-opacity="1.000000" offset="100.00%" stop-color="#000000"></stop>
        </linearGradient>
        <linearGradient x2="286.950409" id="A0972C98-42C8-4B45-8D56-34DC0F47163D" x1="145.346313" y2="84.453949" gradientUnits="userSpaceOnUse" y1="84.453949">
            <stop stop-opacity="1.000000" offset="0.00%" stop-color="#D3E3E5"></stop>
            <stop stop-opacity="1.000000" offset="100.00%" stop-color="#78ADB4"></stop>
        </linearGradient>
        <radialGradient r="347.443176" id="EA368B8A-483E-4CFA-BBF0-3299E2686F2C" cx="0px" gradientTransform="matrix(0.316700,0,0,-0.316700,144.4283,91.562386)" gradientUnits="userSpaceOnUse" cy="0px">
            <stop stop-opacity="1.000000" offset="0.00%" stop-color="#F8F8F9"></stop>
            <stop stop-opacity="1.000000" offset="47.84%" stop-color="#585759"></stop>
            <stop stop-opacity="1.000000" offset="100.00%" stop-color="#585759"></stop>
        </radialGradient>
        <linearGradient x2="263.977478" id="16293FA7-2912-479C-9369-EC24B4CE84F2" x1="53.772118" y2="87.148735" gradientUnits="userSpaceOnUse" y1="87.148735">
            <stop stop-opacity="1.000000" offset="0.00%" stop-color="#E4EDEF"></stop>
            <stop stop-opacity="1.000000" offset="100.00%" stop-color="#B5D0D5"></stop>
        </linearGradient>
        <linearGradient x2="288.488281" id="7ACC0A33-3427-402A-9414-D82856E9B6B4" x1="91.360001" y2="96.528427" gradientUnits="userSpaceOnUse" y1="96.528427">
            <stop stop-opacity="1.000000" offset="0.00%" stop-color="#D3E3E5"></stop>
            <stop stop-opacity="1.000000" offset="100.00%" stop-color="#78ADB4"></stop>
        </linearGradient>
        <linearGradient x2="278.278564" id="929AF9DF-3C57-436D-92E5-DA4AA4ACA4A5" x1="144.866318" y2="67.345047" gradientUnits="userSpaceOnUse" y1="67.345047">
            <stop stop-opacity="1.000000" offset="0.00%" stop-color="#D3E3E5"></stop>
            <stop stop-opacity="1.000000" offset="100.00%" stop-color="#78ADB4"></stop>
        </linearGradient>
        <linearGradient x2="263.980621" id="3CE0CCF4-A696-43AD-95AA-CCC4660D3BEF" x1="53.768326" y2="144.797455" gradientUnits="userSpaceOnUse" y1="144.797455">
            <stop stop-opacity="1.000000" offset="0.00%" stop-color="#E4EDEF"></stop>
            <stop stop-opacity="1.000000" offset="100.00%" stop-color="#B5D0D5"></stop>
        </linearGradient>
        <linearGradient x2="263.974487" id="05B99099-5D3D-41FE-934A-994825C05694" x1="53.796646" y2="132.610443" gradientUnits="userSpaceOnUse" y1="132.610443">
            <stop stop-opacity="1.000000" offset="0.00%" stop-color="#E4EDEF"></stop>
            <stop stop-opacity="1.000000" offset="100.00%" stop-color="#B5D0D5"></stop>
        </linearGradient>
        <linearGradient x2="145.921051" id="9C8D6C0A-6B89-427E-9755-0F5769A2B512" x1="179.998734" y2="175.409225" gradientUnits="userSpaceOnUse" y1="143.868042">
            <stop stop-opacity="1.000000" offset="0.00%" stop-color="#F8F8F9"></stop>
            <stop stop-opacity="1.000000" offset="47.84%" stop-color="#585759"></stop>
            <stop stop-opacity="1.000000" offset="100.00%" stop-color="#585759"></stop>
        </linearGradient>
        <linearGradient x2="235.427704" id="A9B0237B-DEF2-4F82-865D-3C0D6B311041" x1="253.196609" y2="298.097473" gradientUnits="userSpaceOnUse" y1="281.651184">
            <stop stop-opacity="1.000000" offset="0.00%" stop-color="#585759"></stop>
            <stop stop-opacity="1.000000" offset="52.16%" stop-color="#585759"></stop>
            <stop stop-opacity="1.000000" offset="100.00%" stop-color="#F8F8F9"></stop>
        </linearGradient>
        <linearGradient x2="278.671936" id="6935BDC3-3347-4041-A2C1-2CD887BFE225" x1="300.468506" y2="257.348206" gradientUnits="userSpaceOnUse" y1="237.173950">
            <stop stop-opacity="1.000000" offset="0.00%" stop-color="#F8F8F9"></stop>
            <stop stop-opacity="1.000000" offset="47.84%" stop-color="#585759"></stop>
            <stop stop-opacity="1.000000" offset="100.00%" stop-color="#585759"></stop>
        </linearGradient>
        <linearGradient x2="295.672302" id="C10BB61A-CB82-43EE-A7E7-894553E9D0C4" x1="232.044800" y2="296.364929" gradientUnits="userSpaceOnUse" y1="295.498840">
            <stop stop-opacity="1.000000" offset="0.00%" stop-color="#F8F8F9"></stop>
            <stop stop-opacity="1.000000" offset="47.84%" stop-color="#585759"></stop>
            <stop stop-opacity="1.000000" offset="100.00%" stop-color="#585759"></stop>
        </linearGradient>
        <linearGradient x2="293.857147" id="CC7731B8-8521-481A-91C6-836433100DC2" x1="294.640930" y2="298.613281" gradientUnits="userSpaceOnUse" y1="232.725525">
            <stop stop-opacity="1.000000" offset="0.00%" stop-color="#F8F8F9"></stop>
            <stop stop-opacity="1.000000" offset="47.84%" stop-color="#585759"></stop>
            <stop stop-opacity="1.000000" offset="100.00%" stop-color="#585759"></stop>
        </linearGradient>
        <linearGradient x2="294.771484" id="1215D96B-CBA8-4ADB-8B3D-04F53AA654F3" x1="169.304291" y2="299.612274" gradientUnits="userSpaceOnUse" y1="164.055191">
            <stop stop-opacity="1.000000" offset="0.00%" stop-color="#E7E8F2"></stop>
            <stop stop-opacity="1.000000" offset="100.00%" stop-color="#D3D5E9"></stop>
        </linearGradient>
        <linearGradient x2="273.232666" id="2FE60554-EA54-43F4-8658-5F0109B6DE2C" x1="264.827087" y2="284.437744" gradientUnits="userSpaceOnUse" y1="275.356171">
            <stop stop-opacity="1.000000" offset="0.00%" stop-color="#E0DFED"></stop>
            <stop stop-opacity="1.000000" offset="100.00%" stop-color="#BFBFDC"></stop>
        </linearGradient>
        <linearGradient x2="141.166763" id="5E7E4B47-0F4A-408D-9928-773B7CBD8D3D" x1="173.471283" y2="157.265656" gradientUnits="userSpaceOnUse" y1="157.265656">
            <stop stop-opacity="1.000000" offset="0.00%" stop-color="#F8F8F9"></stop>
            <stop stop-opacity="1.000000" offset="47.84%" stop-color="#585759"></stop>
            <stop stop-opacity="1.000000" offset="100.00%" stop-color="#585759"></stop>
        </linearGradient>
        <linearGradient x2="128.887711" id="CC03FE97-7711-45AE-9E2A-4428DAE55498" x1="145.732056" y2="257.998901" gradientUnits="userSpaceOnUse" y1="257.998901">
            <stop stop-opacity="1.000000" offset="0.00%" stop-color="#585759"></stop>
            <stop stop-opacity="1.000000" offset="52.16%" stop-color="#585759"></stop>
            <stop stop-opacity="1.000000" offset="100.00%" stop-color="#F8F8F9"></stop>
        </linearGradient>
        <linearGradient x2="170.223877" id="8BBBAE35-57E8-4701-ACB5-966C76E9F175" x1="190.886337" y2="257.629333" gradientUnits="userSpaceOnUse" y1="257.629333">
            <stop stop-opacity="1.000000" offset="0.00%" stop-color="#F8F8F9"></stop>
            <stop stop-opacity="1.000000" offset="47.84%" stop-color="#585759"></stop>
            <stop stop-opacity="1.000000" offset="100.00%" stop-color="#585759"></stop>
        </linearGradient>
        <linearGradient x2="160.465698" id="0D176F3A-2AD8-4EA0-8EAC-6D85E81AD591" x1="128.388519" y2="285.584076" gradientUnits="userSpaceOnUse" y1="255.073441">
            <stop stop-opacity="1.000000" offset="0.00%" stop-color="#F8F8F9"></stop>
            <stop stop-opacity="1.000000" offset="47.84%" stop-color="#585759"></stop>
            <stop stop-opacity="1.000000" offset="100.00%" stop-color="#585759"></stop>
        </linearGradient>
        <linearGradient x2="158.476425" id="A255DB85-9BBB-4FF5-9A71-C4543B826561" x1="190.013123" y2="285.874207" gradientUnits="userSpaceOnUse" y1="252.604141">
            <stop stop-opacity="1.000000" offset="0.00%" stop-color="#F8F8F9"></stop>
            <stop stop-opacity="1.000000" offset="47.84%" stop-color="#585759"></stop>
            <stop stop-opacity="1.000000" offset="100.00%" stop-color="#585759"></stop>
        </linearGradient>
        <linearGradient x2="158.471161" id="15E11BF1-1BDA-471E-88DD-10BD8197A0BF" x1="158.471176" y2="286.816345" gradientUnits="userSpaceOnUse" y1="162.518799">
            <stop stop-opacity="1.000000" offset="0.00%" stop-color="#E7E8F2"></stop>
            <stop stop-opacity="1.000000" offset="100.00%" stop-color="#D3D5E9"></stop>
        </linearGradient>
        <linearGradient x2="154.645081" id="68BEA045-92ED-452E-B351-AAF354680052" x1="154.645081" y2="268.890045" gradientUnits="userSpaceOnUse" y1="260.281067">
            <stop stop-opacity="1.000000" offset="0.00%" stop-color="#E0DFED"></stop>
            <stop stop-opacity="1.000000" offset="100.00%" stop-color="#BFBFDC"></stop>
        </linearGradient>
    </defs>
    <g ID="eGR100FC_08D39BE2-1586-4C27-A0A2-A6B93BB1AE73" dclass="DiaElement" element_type="eGR100FC">
        <path ID="eGR100FC_08A29669-EEE3-4C69-908C-BFD2A3F669AF" d=" M 221.859070 290.301727 L 223.418030 290.301727 L 223.418030 432.635773 L 221.859070 432.635773 Z M 221.859070 290.301727" dclass="DKDrawableShape" fill="url(#0C1B7B1F-A852-4E65-9EBB-E52EB1101B27)"></path>
        <path ID="eGR100FC_6E67A4C0-8C0D-475B-A399-874328F06EDA" d=" M 95.418030 290.301758 L 96.976990 290.301758 L 96.976990 441.707306 L 95.418030 441.707306 Z M 95.418030 290.301758" dclass="DKDrawableShape" fill="url(#B44C3523-A6FB-46B4-A46F-806CED95AB57)"></path>
        <path ID="eGR100FC_FC0A0F94-D897-408B-B996-BD68079B17DE" d=" M 96.976982 311.783142 L 97.035187 412.427399 C 97.035187 412.427399 99.304001 433.942078 134.868042 439.284424 C 170.434174 444.624725 191.568481 437.804443 204.386261 432.633728 C 217.204041 427.463013 222.638580 414.448395 222.638580 414.448395 L 221.859100 314.397766 C 221.859100 314.397766 218.257904 287.207581 165.584793 287.168213 C 96.457329 287.118774 96.976982 311.783142 96.976982 311.783142 Z M 96.976982 311.783142" dclass="DKDrawableShape" fill="url(#65033554-B1DC-4B77-8C05-595CFF736389)"></path>
        <path ID="eGR100FC_A5C1B8D5-C19E-4EBA-AAD4-43D1E3756C66" d=" M 213.810654 397.341248 C 219.507080 401.746796 222.791290 406.909393 222.791290 412.427399 C 222.791290 428.596710 194.639587 441.703247 159.913223 441.703247 C 125.186859 441.703247 97.035156 428.596710 97.035156 412.427399 C 97.035156 410.901031 97.284576 409.408966 97.766830 407.947174" dclass="DKDrawableShape" stroke-linecap="butt" stroke="#666666" stroke-linejoin="miter" stroke-opacity="1.000000" fill-opacity="0.000000" fill="#000000" stroke-width="1.526500"></path>
        <path ID="eGR100FC_54036B0D-E20E-4274-BE02-2905CE76B096" d=" M 213.233856 300.440247 C 218.933426 304.845764 222.217636 310.008392 222.217636 315.526398 C 222.217636 331.695709 194.065933 344.802216 159.339569 344.802216 C 124.613213 344.802216 96.461502 331.695740 96.461502 315.526398 C 96.461502 314.003052 96.709908 312.507965 97.193176 311.047211" dclass="DKDrawableShape" stroke-linecap="butt" stroke="#666666" stroke-linejoin="miter" stroke-opacity="1.000000" fill-opacity="0.000000" fill="#000000" stroke-width="1.526500"></path>
        <path ID="eGR100FC_894343C6-F3A7-448F-880A-ED85BE44C0C1" d=" M 212.739136 301.043915 C 201.544754 292.395416 181.084961 287.021790 159.335373 287.021790 C 154.985886 287.021790 150.648849 287.229736 146.435516 287.641663 L 146.277527 286.107178 C 150.542847 285.691254 154.935989 285.479279 159.335373 285.479279 C 181.760498 285.479279 202.095596 290.846832 213.727509 299.836548 L 212.739136 301.043915 L 212.739136 301.043915 Z M 212.739136 301.043915" dclass="DKDrawableShape" fill="url(#DD785C8C-0C5C-4CBF-B7B7-BC09792B6E99)"></path>
        <path ID="contour_F5E55888-4F96-43F8-9731-2FC2831D38C7" d=" M 96.348190 311.259216 L 96.407440 412.909912 C 96.407440 412.909912 98.698074 434.641693 134.620682 440.035492 C 170.541214 445.429291 191.886505 438.541382 204.833145 433.319214 C 217.778748 428.096008 223.268387 414.954224 223.268387 414.954224 L 222.480591 313.900116 C 222.480591 313.900116 218.845108 286.438385 165.642990 286.398010 C 95.823334 286.347504 96.348190 311.259216 96.348190 311.259216 Z M 96.348190 311.259216" dclass="DKDrawableShape" fill-opacity="0.000000" fill="#000000"></path>
        <path ID="eGR100FC_0EB10F5B-0A1B-4867-AA24-B4B06403C035" d=" M 159.913269 382.379272 C 155.514923 382.379272 151.121750 382.591248 146.857483 383.007202 L 147.012329 384.542664 C 151.226715 384.130798 155.565826 383.922791 159.912186 383.922791 C 171.631409 383.922791 182.961945 385.495667 192.684647 388.286926 C 192.734528 387.743805 192.764664 387.196655 192.777130 386.646454 C 183.058624 383.896576 171.787338 382.379272 159.913269 382.379272 Z M 159.913269 382.379272" dclass="DKDrawableShape" fill="url(#E6C9CDD3-0C26-4199-9A74-8A1A8F0D517B)"></path>
        <path ID="eGR100FC_AAF4305E-942D-4A1E-B627-64734E2FFDE9" d=" M 217.681046 395.233368 C 217.689346 392.723724 216.911957 390.758179 216.434906 388.315186 C 216.027496 386.232605 216.130386 383.688599 216.261353 381.571655 C 216.337219 380.326935 216.871429 379.278046 217.025223 378.057556 C 217.161377 376.986481 216.994049 375.773041 216.989899 374.689850 C 216.982635 372.906036 216.989899 371.123260 216.989899 369.339447 C 216.989899 364.505920 217.462769 359.426025 217.023163 354.616760 C 216.751923 351.653839 215.001709 348.110443 214.059067 345.245483 C 213.541504 343.673645 212.403473 341.114563 211.309067 339.829437 C 210.287430 338.631134 208.536194 338.673553 207.292160 337.877045 C 206.154114 337.147156 205.390244 335.621796 203.842697 335.757050 C 202.597610 335.865051 200.860931 337.429810 199.667801 338.008270 C 194.708221 340.418976 189.829727 342.715637 185.982208 346.758728 C 185.074905 347.712708 183.876572 348.480957 183.022278 349.416748 C 182.278122 350.231445 181.450851 352.193939 181.095398 353.305359 C 180.049835 356.575195 181.281418 359.802612 182.863235 362.592896 C 185.093597 366.520905 189.091827 369.325348 190.846161 373.476440 C 191.685928 375.457092 191.037384 377.400391 191.510284 379.433594 C 191.900024 381.104309 192.679504 382.348022 192.754318 384.096497 C 192.791748 384.958618 192.796921 385.804565 192.777191 386.645508 C 201.415924 389.089539 208.831360 392.504700 214.304367 396.733582 L 213.316010 397.941956 C 208.154800 393.954346 201.006454 390.674469 192.684708 388.285980 C 192.597382 389.254089 192.461258 390.215149 192.213898 391.171143 C 191.812744 392.715698 191.332565 394.134064 191.352295 395.718994 C 191.374115 397.265594 191.402191 398.309418 191.873001 399.757050 C 192.310532 401.101685 193.184601 402.433258 193.462097 403.795074 C 193.636688 404.658203 193.180450 405.667725 193.393494 406.521759 C 193.545227 407.132538 194.002518 407.190063 194.157364 407.800842 C 194.505524 409.162659 193.894424 410.639587 193.425674 411.869141 C 192.560974 414.138519 190.630997 417.125671 188.579407 418.635895 C 187.183624 419.664581 186.070511 420.786163 184.403458 421.309113 C 183.172928 421.693756 181.968369 421.705841 181.595261 423.293823 C 181.328171 424.419403 181.517288 425.663086 180.970612 426.693848 C 180.362640 427.842682 179.438675 428.339355 178.179031 428.878418 C 176.564987 429.568939 175.101654 429.288300 173.367035 429.352905 C 171.287384 429.427612 169.755432 430.292755 167.802582 430.897430 C 165.951569 431.464813 164.187881 431.415344 162.248535 431.386078 C 161.210266 431.371918 158.806335 431.503174 159.924652 433.097198 C 160.676056 433.343506 161.496078 433.612061 162.269348 433.915924 C 164.275192 434.703339 166.258209 435.984406 168.487518 436.119690 C 171.123215 436.275146 172.400528 434.922394 174.726471 434.083527 C 176.894455 433.305176 178.815094 432.716644 180.943588 431.894867 C 183.365173 430.961121 185.983200 430.109039 188.564835 430.045441 C 191.440598 429.977844 194.640640 430.446259 197.431168 429.897064 C 199.503540 429.486176 201.564484 428.041565 203.822906 428.025421 C 206.796356 428.006256 208.951889 426.932129 211.438950 425.482452 C 213.083130 424.525452 213.459366 424.506256 214.040329 422.638672 C 214.391632 421.512054 214.703400 420.396545 215.076523 419.276001 C 215.503693 417.992920 215.890289 416.653290 215.634613 415.237946 C 215.408066 413.975037 214.911240 413.219940 214.911240 411.873260 C 214.911240 408.977966 216.505539 406.602570 217.017929 403.778992 C 217.296478 402.234406 216.716522 400.614166 217.137436 399.070618 C 217.529297 397.662231 217.674820 396.775879 217.681046 395.233368 Z M 217.681046 395.233368" dclass="DKDrawableShape" fill="url(#A6A3E8D5-5E36-4220-97F8-F0C7045E47F4)"></path>
        <path ID="eGR100FC_24E938E2-5885-453E-A640-41463939D1AA" d=" M 155.326767 433.413086 L 160.167862 433.408051 C 160.072235 433.302002 159.995346 433.199036 159.927795 433.102142 C 159.725113 433.035492 159.521423 432.968903 159.332260 432.905273 C 157.511414 432.297577 156.699707 431.682800 155.326767 433.413086 Z M 155.326767 433.413086" dclass="DKDrawableShape" fill="url(#C3ED7D1C-BB21-4B7A-A5E1-C7F6EFCF0BC3)"></path>
        <path ID="eGR100FC_C0ABE8B7-45ED-421E-9D2C-FC5BC6F62418" d=" M 214.305374 396.736511 C 208.832397 392.508698 201.416931 389.093475 192.778198 386.648438 C 192.765732 387.197632 192.735596 387.744781 192.685715 388.288910 C 201.007431 390.677399 208.155807 393.957306 213.317001 397.944885 L 214.305374 396.736511 Z M 214.305374 396.736511" dclass="DKDrawableShape" fill="url(#DA3392E4-7ABA-4C93-9697-B32B7FD3B0F0)"></path>
        <path ID="eGR100FC_9185B8CE-7A35-4286-82EF-994A03C15CCB" d=" M 217.111496 399.208832 C 212.992706 394.234955 201.560333 389.013794 192.778198 386.648499 C 192.765747 387.197693 192.735611 387.744812 192.685715 388.288940 C 201.655991 390.475555 212.351486 396.531616 217.015900 401.234924 L 216.984726 400.418243 L 217.111496 399.208832 Z M 217.111496 399.208832" dclass="DKDrawableShape" fill-opacity="1.000000" fill="#88899A"></path>
        <Hotspots>
            <StickySpot id_sticky_spot="C4DC8BE4-D910-440A-9476-675E854F53BF_32771" relative_location="{0.000000,-0.500000}" position_kind="0"></StickySpot>
            <StickySpot id_sticky_spot="C4DC8BE4-D910-440A-9476-675E854F53BF_32768" relative_location="{-0.500000,0.000000}" position_kind="0"></StickySpot>
            <StickySpot id_sticky_spot="C4DC8BE4-D910-440A-9476-675E854F53BF_32769" relative_location="{0.500000,0.000000}" position_kind="0"></StickySpot>
            <StickySpot id_sticky_spot="C4DC8BE4-D910-440A-9476-675E854F53BF_32770" relative_location="{0.000000,0.500000}" position_kind="0"></StickySpot>
        </Hotspots>
        <g>
            <text style="font-family:Helvetica; font-size:14.000000; fill: #000000;" text-anchor="middle" transform="matrix(1.000000,0.000000,-0.000000,1.000000,159.808258,368.447601)">Database</text>
        </g>
    </g>
    <g ID="eGR0_E89CBFC7-7984-41F2-8CEF-5240B5E76A20" dclass="DiaElement" element_type="eGR0">
        <path ID="eGR0_75FCF77B-344F-46CC-94D0-22920604052E" d=" M 246.515839 46.222664 C 245.208298 43.650703 243.534576 41.962139 241.779236 41.227142 C 236.095367 39.612789 229.980606 39.612789 223.268814 41.227142 C 230.338852 43.503311 237.044693 46.146473 243.384323 49.230820 C 257.521423 56.207718 267.435394 63.916573 273.257599 72.507828 C 277.189117 78.455910 279.232025 84.845200 279.232025 91.516266 C 279.232025 105.262474 270.999756 117.375267 254.459595 127.731293 C 261.671906 128.606659 268.083191 128.096283 273.553131 126.035690 C 279.020111 123.912964 281.640198 117.667053 281.492889 107.242821 C 285.426422 93.948837 285.426422 83.523636 281.492889 75.885956 C 281.429169 71.039810 279.166412 67.808067 274.717407 66.192711 C 272.089386 60.686810 267.868256 57.014862 262.109772 55.326298 C 259.342407 50.333786 255.841736 47.763832 251.544983 47.470043 C 248.267181 47.395863 246.666107 46.955650 246.515839 46.222664 Z M 246.515839 46.222664" dclass="DKDrawableShape" fill="url(#A0972C98-42C8-4B45-8D56-34DC0F47163D)"></path>
        <path ID="eGR0_DF15DB10-B637-4120-8573-5691B707C0B1" d=" M 223.271759 41.227119 C 223.271759 41.227119 223.271759 41.227119 223.205109 41.227119 L 220.727371 42.330112 C 228.231262 44.605278 235.372925 47.395832 242.149445 50.626572 C 250.966827 54.811909 258.109497 59.364212 263.647095 64.285545 C 272.830658 72.436615 277.420990 81.541229 277.420990 91.516266 C 277.420990 91.665665 277.420990 91.894310 277.420990 92.113884 L 277.420990 92.337494 C 277.420990 92.405663 277.420990 92.483887 277.420990 92.557068 C 276.984131 105.634476 268.532959 117.084457 252.132050 126.996307 L 254.468491 127.733307 C 271.005646 117.378281 279.240936 105.265450 279.240936 91.519272 C 279.240936 84.848236 277.200012 78.458916 273.266449 72.510803 C 267.441284 63.921555 257.530304 56.210693 243.393219 49.233826 C 237.047653 46.147449 230.341797 43.503284 223.271759 41.227119 Z M 223.271759 41.227119" dclass="DKDrawableShape" fill-opacity="1.000000" fill="#767783"></path>
        <path ID="eGR0_625AF5A9-1CA4-49A2-A05D-21FAED74EFE7" d=" M 220.723450 42.330143 L 223.202179 41.227146 C 203.746399 34.912037 181.592957 31.754509 156.814514 31.754509 C 122.930107 31.754509 94.073837 37.629383 70.171059 49.230793 C 46.344894 60.981598 34.393028 75.005539 34.393028 91.516235 C 34.393028 101.882309 39.056976 111.276726 48.384834 119.723587 C 53.996063 124.716125 61.282043 129.415863 70.172066 133.820740 C 94.074814 145.498367 122.932091 151.370255 156.815521 151.370255 C 190.632278 151.370255 219.484558 145.499359 243.385361 133.820740 C 247.390533 131.838379 251.035492 129.783829 254.463562 127.733246 L 252.127136 126.996277 C 249.070282 128.833267 245.719818 130.596008 242.147491 132.281570 C 236.680542 134.926743 230.927002 137.276093 224.952530 139.256470 C 222.471817 140.065643 220.071686 140.869812 217.591949 141.533600 C 201.633865 146.084930 183.928467 148.582672 164.466690 149.170288 C 161.989929 149.244492 159.515167 149.244492 156.961807 149.244492 C 129.417068 149.244492 105.224693 145.346939 84.309158 137.644089 C 80.011429 135.951508 75.857948 134.193741 71.849777 132.280579 C 57.858002 125.671677 48.166939 118.180389 42.482025 109.813751 C 38.766418 104.457245 36.800148 98.652519 36.652878 92.556038 C 36.581245 92.484833 36.581245 92.408646 36.652878 92.337463 L 36.652878 92.113853 C 36.581245 91.894279 36.581245 91.670670 36.581245 91.516235 C 36.581245 75.519928 48.314209 61.936172 71.850792 50.626572 C 95.314735 39.319954 123.733192 33.663651 156.961838 33.737831 C 180.640686 33.664684 201.924408 36.600628 220.723450 42.330143 Z M 220.723450 42.330143" dclass="DKDrawableShape" fill="url(#EA368B8A-483E-4CFA-BBF0-3299E2686F2C)"></path>
        <path ID="eGR0_D43C1ADC-9A83-455F-A58C-E1E7AA40574B" d=" M 237.484467 68.322517 C 235.806793 66.340134 233.040466 65.385567 229.174576 65.238174 C 217.808792 61.935223 213.437393 55.620113 215.841522 46.222691 L 220.726364 42.330139 C 202.436829 37.042839 179.845581 33.664707 156.962738 33.738892 C 123.733078 33.664707 94.184250 39.867485 70.720284 51.177082 C 47.433456 61.484001 36.600044 76.440475 36.653786 91.516289 C 36.653786 91.665688 36.653786 91.818123 36.653786 92.039726 C 36.582161 92.039726 36.582161 92.039726 36.653786 92.110931 L 36.653786 92.335518 C 36.582161 92.402687 36.582161 92.481911 36.653786 92.554115 C 36.801094 98.648598 38.768333 104.453323 42.482964 109.811829 C 48.167885 118.180466 57.858902 125.669754 71.850716 132.278656 C 75.857910 134.187790 80.011353 135.949585 84.310089 137.641144 C 81.906967 134.700180 81.032303 131.767242 81.906967 128.830322 C 83.655312 125.304794 89.485474 127.283134 99.468109 134.628998 C 106.537163 136.689575 114.478874 137.490738 123.078331 136.905136 C 127.524338 134.998978 131.167313 134.556793 134.155533 135.663788 C 139.619492 137.939926 145.084457 139.255493 150.478775 139.402908 C 160.459412 140.286316 170.662933 139.772888 181.154053 137.937927 C 185.968262 135.660797 190.556549 135.289780 194.781662 136.614349 C 200.103333 133.530014 205.861847 132.205414 212.121902 132.871201 C 216.934082 128.246689 222.692596 125.526337 229.468109 124.720161 C 236.459518 119.507050 239.451721 113.628105 238.503418 107.025253 C 236.975952 100.120590 236.975952 93.514702 238.503418 87.271767 C 238.648651 80.884476 239.154175 76.550774 240.181091 74.275604 C 240.983185 72.436646 240.034851 70.452263 237.484467 68.322517 Z M 237.484467 68.322517" dclass="DKDrawableShape" fill="url(#16293FA7-2912-479C-9369-EC24B4CE84F2)"></path>
        <path ID="eGR0_9C2015AE-5E48-401C-A8B0-402FEE7ACDD8" d=" M 229.177582 65.239143 C 233.043457 65.386536 235.809784 66.341133 237.487518 68.323486 C 240.036896 70.453232 240.986176 72.437614 240.181168 74.271599 C 239.157242 76.547737 238.651749 80.880470 238.503479 87.267761 C 236.978012 93.513672 236.978012 100.117554 238.503479 107.021240 C 239.451782 113.627136 236.459595 119.504044 229.468170 124.717163 C 222.692703 125.522362 216.934143 128.242691 212.121964 132.868225 C 205.861923 132.202408 200.103394 133.525009 194.781723 136.610352 C 190.556641 135.288788 185.968323 135.659760 181.154129 137.933929 C 170.663010 139.768890 160.460495 140.282303 150.478836 139.398911 C 145.084549 139.252518 139.619553 137.933929 134.155594 135.659760 C 131.167358 134.553787 127.524399 134.996979 123.078384 136.902145 C 114.478935 137.490738 106.538170 136.686569 99.468163 134.626007 C 89.485527 127.280136 83.654388 125.300781 81.907028 128.827316 C 81.032372 131.764267 81.907028 134.698212 84.310150 137.638168 C 105.225708 145.344025 129.418045 149.237549 156.962799 149.237549 C 159.515167 149.237549 161.989929 149.237549 164.467682 149.165359 C 165.562256 146.157211 168.108673 144.979019 172.050156 145.493439 C 180.496414 146.378815 187.785324 145.564651 194.125961 142.998672 C 198.279449 141.237900 201.705505 140.282303 204.548416 140.207123 C 209.213348 139.694763 213.583725 140.139938 217.591919 141.527679 C 220.071655 140.865906 222.471771 140.058716 224.951523 139.250519 C 227.060059 135.803207 230.557800 132.716827 235.371979 129.998474 C 240.180222 127.356323 243.824173 125.813141 246.158630 125.517349 C 248.418457 125.299751 250.455368 125.813171 252.131104 126.988350 C 268.531982 117.076508 276.983154 105.625519 277.419983 92.549110 C 277.419983 92.476929 277.419983 92.400711 277.419983 92.330536 L 277.419983 92.105927 C 277.419983 92.034721 277.419983 92.034721 277.419983 92.034721 C 277.346405 91.810135 277.346405 91.660736 277.346405 91.511314 C 276.909485 82.047714 272.316284 73.532654 263.646149 65.748581 C 258.111511 60.901432 250.968842 56.348125 242.148468 52.165821 C 234.784897 48.567085 226.845139 45.628132 218.609879 43.132362 L 215.843567 46.217709 C 213.437393 55.620110 217.811768 61.936195 229.177582 65.239143 Z M 229.177582 65.239143" dclass="DKDrawableShape" fill="url(#7ACC0A33-3427-402A-9414-D82856E9B6B4)"></path>
        <path ID="eGR0_2E6A86F6-01C6-4FC3-BC13-C0887D89C76D" d=" M 242.149445 50.626602 C 235.370941 47.395866 228.231277 44.605278 220.727417 42.330139 L 218.609863 43.137314 C 226.846161 45.633057 234.785904 48.572014 242.149475 52.170750 C 250.966858 56.353050 258.109528 60.906414 263.647125 65.753510 C 272.317261 73.537582 276.907562 82.053642 277.347382 91.516235 L 277.421021 91.516235 C 277.421021 81.541229 272.832642 72.436623 263.647125 64.285522 C 258.109528 59.365246 250.966827 54.811935 242.149445 50.626602 Z M 242.149445 50.626602" dclass="DKDrawableShape" fill="url(#929AF9DF-3C57-436D-92E5-DA4AA4ACA4A5)"></path>
        <path ID="eGR0_32D50B45-4B8D-4AAF-83E5-392F577E4898" d=" M 172.050156 145.496384 C 168.108673 144.980988 165.561279 146.160172 164.466675 149.168335 C 183.927429 148.580734 201.632874 146.081955 217.590912 141.530655 C 213.582748 140.139877 209.212357 139.697662 204.547424 140.209091 C 201.707474 140.285278 198.278442 141.240845 194.124985 143.001648 C 187.787354 145.568573 180.499374 146.381775 172.050156 145.496384 Z M 172.050156 145.496384" dclass="DKDrawableShape" fill="url(#3CE0CCF4-A696-43AD-95AA-CCC4660D3BEF)"></path>
        <path ID="eGR0_B8095A85-CB8A-4DCE-A507-35544C328202" d=" M 242.149399 132.279617 C 245.721725 130.593033 249.072159 128.832291 252.129013 126.994324 C 250.453308 125.819153 248.415390 125.304756 246.156540 125.523331 C 243.822083 125.819153 240.178131 127.362328 235.369904 130.004456 C 230.555710 132.722809 227.058014 135.807144 224.949463 139.257492 C 230.925919 137.275146 236.682449 134.922760 242.149399 132.279617 Z M 242.149399 132.279617" dclass="DKDrawableShape" fill="url(#05B99099-5D3D-41FE-934A-994825C05694)"></path>
        <path ID="contour_DC477DC1-3F6B-4F0F-AC30-ED90C068014B" d=" M 243.574127 49.017567 C 291.080811 72.169983 291.080811 109.707443 243.574127 132.859863 C 196.067535 156.012283 119.044083 156.012283 71.537483 132.859863 C 24.030823 109.707443 24.030823 72.169983 71.537483 49.017567 C 119.044083 25.865135 196.067535 25.865135 243.574127 49.017567" dclass="DKDrawableShape" fill-opacity="0.000000" fill="#000000"></path>
        <Hotspots>
            <StickySpot id_sticky_spot="8CA65ED9-AF15-4A73-A56D-A4C0A03D588C_32768" relative_location="{-0.500000,0.000000}" position_kind="0"></StickySpot>
            <StickySpot id_sticky_spot="8CA65ED9-AF15-4A73-A56D-A4C0A03D588C_32769" relative_location="{0.500000,0.000000}" position_kind="0"></StickySpot>
            <StickySpot id_sticky_spot="8CA65ED9-AF15-4A73-A56D-A4C0A03D588C_32770" relative_location="{0.000000,0.500000}" position_kind="0"></StickySpot>
            <StickySpot id_sticky_spot="8CA65ED9-AF15-4A73-A56D-A4C0A03D588C_32771" relative_location="{0.000000,-0.500000}" position_kind="0"></StickySpot>
        </Hotspots>
        <g>
            <text style="font-family:Helvetica; font-size:14.000000; fill: #000000;" text-anchor="middle" transform="matrix(1.000000,0.000000,-0.000000,1.000000,157.555817,95.188713)">Web Application</text>
        </g>
    </g>
    <g dclass="DiaElementArrow">
        <ConnectorEndPoint location="{159.41803, 151.37025}" id_target_sticky_spot="8CA65ED9-AF15-4A73-A56D-A4C0A03D588C_32770" is_start="1"></ConnectorEndPoint>
        <ConnectorEndPoint location="{159.41803, 285.47928}" id_target_sticky_spot="C4DC8BE4-D910-440A-9476-675E854F53BF_32771" is_start="0"></ConnectorEndPoint>
        <text style="font-family:Helvetica; font-size:14.000000; fill: #000000;">
            <textPath xlink:href="#FBD903A9-92F3-4A96-9142-3CCA4E40A249" startOffset="0.000000%" baseline-shift="0.000000"></textPath>
        </text>
        <g dclass="DiaElementArrowStyle">
            <g dclass="NSArray">
                <path d=" M 265.464722 296.803101 L 145.914032 167.638367 C 145.914032 167.638367 146.938873 166.550598 147.015625 166.618790 C 147.092377 166.686981 266.566284 295.783508 266.566284 295.783508 L 265.464722 296.803101 Z M 605.688232 356.413971" meta_id="p9ARROW" fill-opacity="1.000000" fill="#666666"></path>
                <path d=" M 279.288300 258.129150 L 170.783234 140.898270 C 170.783234 140.898270 171.852310 139.802261 171.884811 139.878677 C 171.917343 139.955063 280.389893 257.109558 280.389893 257.109558 L 279.288300 258.129150 Z M 586.695618 319.999023" meta_id="p8ARROW" fill-opacity="1.000000" fill="#666666"></path>
                <path d=" M 182.913361 141.682251 C 182.857391 141.775009 141.508209 180.005493 141.508209 180.005493 L 140.487244 178.902420 L 181.892380 140.579178 C 181.892380 140.579178 182.969330 141.589493 182.913361 141.682251 Z M 441.817719 311.629364" meta_id="p7ARROW" fill="url(#9C8D6C0A-6B89-427E-9755-0F5769A2B512)"></path>
                <path d=" M 259.384033 276.848083 C 259.384033 276.848083 234.368286 299.947205 234.406540 299.966431 C 234.444794 299.985687 233.385574 298.863373 233.385574 298.863373 L 258.363037 275.745056 L 259.384033 276.848114 L 259.384033 276.848083 Z M 586.913025 347.321747" meta_id="p6ARROW" fill="url(#A9B0237B-DEF2-4F82-865D-3C0D6B311041)"></path>
                <path d=" M 302.595764 236.124939 C 302.529205 236.198853 276.123047 260.627228 276.123047 260.627228 L 275.102112 259.524170 L 301.574768 235.021912 C 301.574829 235.021881 302.662354 236.051025 302.595764 236.124939 Z M 586.378906 287.947144" meta_id="p5ARROW" fill="url(#6935BDC3-3347-4041-A2C1-2CD887BFE225)"></path>
                <path d=" M 228.231201 294.595215 L 294.311279 296.291565 L 294.260803 297.359589 C 294.260803 297.359589 228.131607 295.632263 228.179962 295.663940 C 228.229858 295.694275 228.231201 294.595215 228.231201 294.595215 Z M 578.776428 382.239594" meta_id="p4ARROW" fill="url(#C10BB61A-CB82-43EE-A7E7-894553E9D0C4)"></path>
                <path d=" M 295.340698 228.996521 C 295.357971 229.065247 294.305115 297.425201 294.305115 297.425201 L 292.971924 297.360718 L 294.005402 228.931213 C 294.005402 228.931213 295.323456 228.927856 295.340698 228.996521 Z M 576.219299 288.429474" meta_id="p3ARROW" fill="url(#CC7731B8-8521-481A-91C6-836433100DC2)"></path>
                <path d=" M 176.770905 147.367508 C 176.770905 147.367508 151.333817 170.814301 151.296249 170.945999 C 151.258652 171.077774 253.812927 282.004517 253.812927 282.004517 L 240.045044 294.865051 L 292.896271 296.234528 L 293.683502 244.479065 L 279.157074 258.019775 L 176.770905 147.367508 Z M 441.817719 319.999054" meta_id="p2ARROW" fill="url(#1215D96B-CBA8-4ADB-8B3D-04F53AA654F3)"></path>
                <path d=" M 257.899780 281.265350 C 257.899780 281.265350 246.494568 286.000977 247.005783 291.348480 C 249.058441 296.350586 261.686035 287.321289 266.265259 294.232544 C 272.087921 296.781616 269.893921 293.972107 276.202332 292.685364 C 282.510773 291.398590 287.109406 301.456848 289.799194 291.792267 C 292.349304 282.632355 294.690857 272.230530 289.149780 266.593079 C 275.785980 261.668396 277.119385 269.620483 276.674255 278.224701 C 276.229156 286.828979 275.361816 281.716888 270.232788 283.050720 C 265.103760 284.384583 265.719055 280.628296 257.899780 281.265350 Z M 589.146606 351.411530" meta_id="p1ARROW" fill="url(#2FE60554-EA54-43F4-8658-5F0109B6DE2C)"></path>
            </g>
            <g ID="eGR210ARROW_DD161F8D-366F-41E3-8848-DEEBF5C798E2" element_type="eGR210ARROW" dclass="DiaElement">
                <path d=" M 144.835464 271.532623 L 144.835464 153.294769 C 144.835464 153.294769 145.872757 153.223679 145.879730 153.294769 C 145.886688 153.365875 145.879730 271.532623 145.879730 271.532623 L 144.835464 271.532623 Z M 144.835464 271.532623" meta_id="p9ARROW" fill-opacity="1.000000" fill="#666666"></path>
                <path d=" M 170.169525 258.319336 L 170.169525 151.394424 C 170.169525 151.394424 171.233307 151.340057 171.213791 151.394424 C 171.194290 151.448792 171.213791 258.319336 171.213791 258.319336 L 170.169525 258.319336 Z M 170.169525 258.319336" meta_id="p8ARROW" fill-opacity="1.000000" fill="#666666"></path>
                <path d=" M 175.992355 157.527023 C 175.919952 157.547943 136.741653 157.527023 136.741653 157.527023 L 136.741653 156.481339 L 175.992355 156.481339 C 175.992355 156.481339 176.064758 157.506104 175.992355 157.527023 Z M 175.992355 157.527023" meta_id="p7ARROW" fill="url(#5E7E4B47-0F4A-408D-9928-773B7CBD8D3D)"></path>
                <path d=" M 151.160965 258.470581 C 151.160965 258.470581 127.472687 258.442719 127.483116 258.470581 C 127.493568 258.498474 127.483116 257.424927 127.483116 257.424927 L 151.160950 257.424927 L 151.160950 258.470581 L 151.160965 258.470581 Z M 151.160965 258.470581" meta_id="p6ARROW" fill="url(#CC03FE97-7711-45AE-9E2A-4428DAE55498)"></path>
                <path d=" M 192.468185 258.098999 C 192.399261 258.105286 167.372910 258.098999 167.372910 258.098999 L 167.372910 257.053314 L 192.468170 257.053314 C 192.468185 257.053314 192.537109 258.092712 192.468185 258.098999 Z M 192.468185 258.098999" meta_id="p5ARROW" fill="url(#8BBBAE35-57E8-4701-ACB5-966C76E9F175)"></path>
                <path d=" M 126.868439 252.809906 L 159.805466 284.903412 L 159.274979 285.424866 C 159.274979 285.424866 126.327515 253.292328 126.337242 253.331360 C 126.348389 253.370407 126.868439 252.809906 126.868439 252.809906 Z M 126.868439 252.809906" meta_id="p4ARROW" fill="url(#0D176F3A-2AD8-4EA0-8EAC-6D85E81AD591)"></path>
                <path d=" M 192.132629 251.030899 C 192.108963 251.074127 159.266602 285.479279 159.266602 285.479279 L 158.616379 284.816345 L 191.481705 250.366531 C 191.481705 250.366531 192.156281 250.987671 192.132629 251.030899 Z M 192.132629 251.030899" meta_id="p3ARROW" fill="url(#A255DB85-9BBB-4FF5-9A71-C4543B826561)"></path>
                <path d=" M 170.169510 157.527023 C 170.169510 157.527023 146.101807 157.477509 146.020370 157.527023 C 145.938919 157.576538 145.879745 258.470581 145.879745 258.470581 L 132.772751 258.530548 L 159.109970 284.205627 L 183.969925 258.152710 L 170.154205 258.201508 L 170.169510 157.527023 Z M 170.169510 157.527023" meta_id="p2ARROW" fill="url(#15E11BF1-1BDA-471E-88DD-10BD8197A0BF)"></path>
                <path d=" M 148.315674 260.024475 C 148.315674 260.024475 140.254593 257.052643 137.988525 260.024475 C 136.672729 263.548462 147.386978 264.905762 146.458969 270.598480 C 148.227264 274.651550 148.434738 272.180267 152.263733 274.504456 C 156.092728 276.828644 153.687439 284.137299 159.627930 280.473907 C 165.258667 277.002228 171.369736 272.797882 171.204742 267.301056 C 166.708801 258.471283 163.631683 263.161560 159.338318 267.344269 C 155.044952 271.527039 157.017944 268.507080 153.768860 266.764282 C 150.519791 265.021454 152.609039 263.394379 148.315674 260.024475 Z M 148.315674 260.024475" meta_id="p1ARROW" fill="url(#68BEA045-92ED-452E-B351-AAF354680052)"></path>
                <Hotspots>
                    <StickySpot id_sticky_spot="B0558293-F341-4A4E-B31C-4B1BC648C0F9_32768" relative_location="{-0.500000,0.000000}" position_kind="0"></StickySpot>
                    <StickySpot id_sticky_spot="B0558293-F341-4A4E-B31C-4B1BC648C0F9_32769" relative_location="{0.500000,0.000000}" position_kind="0"></StickySpot>
                    <StickySpot id_sticky_spot="B0558293-F341-4A4E-B31C-4B1BC648C0F9_32770" relative_location="{0.000000,0.500000}" position_kind="0"></StickySpot>
                    <StickySpot id_sticky_spot="B0558293-F341-4A4E-B31C-4B1BC648C0F9_32771" relative_location="{0.000000,-0.500000}" position_kind="0"></StickySpot>
                </Hotspots>
                <g transform="rotate(90.000003, 159.418030, 218.424774)"></g>
            </g>
        </g>
    </g>
</svg>